<svg width="38" height="263" viewBox="0 0 38 263" fill="none" xmlns="http://www.w3.org/2000/svg">
<path d="M2.6 241.12H5.6V250.32H29V253.52H5.6V262.72H2.6L2.6 241.12ZM16.08 228.444C14.5867 228.444 13.44 228.844 12.64 229.644C11.8133 230.444 11.4 231.577 11.4 233.044C11.4 234.43 11.7067 235.604 12.32 236.564C12.9067 237.524 13.8667 238.23 15.2 238.684L13.6 241.284C12.1067 240.75 10.9067 239.764 10 238.324C9.06666 236.884 8.6 235.097 8.6 232.964C8.6 231.524 8.85333 230.217 9.36 229.044C9.84 227.87 10.5867 226.95 11.6 226.284C12.5867 225.59 13.8667 225.244 15.44 225.244H25.12C26.08 225.244 26.56 224.737 26.56 223.724C26.56 223.217 26.4933 222.724 26.36 222.244L28.88 222.404C29.1467 222.937 29.28 223.63 29.28 224.484C29.28 225.257 29.1333 225.95 28.84 226.564C28.5467 227.177 28.1067 227.657 27.52 228.004C26.9067 228.35 26.1467 228.524 25.24 228.524H24.84L24.96 227.724C26 228.044 26.8533 228.59 27.52 229.364C28.16 230.137 28.64 231.004 28.96 231.964C29.2533 232.924 29.4 233.87 29.4 234.804C29.4 235.977 29.2 237.07 28.8 238.084C28.4 239.097 27.8 239.91 27 240.524C26.1733 241.11 25.16 241.404 23.96 241.404C22.4667 241.404 21.24 240.91 20.28 239.924C19.2933 238.91 18.6267 237.51 18.28 235.724L16.72 227.804H19.36L20.68 234.244C20.9467 235.55 21.32 236.524 21.8 237.164C22.28 237.804 22.9467 238.124 23.8 238.124C24.6267 238.124 25.3067 237.804 25.84 237.164C26.3467 236.497 26.6 235.564 26.6 234.364C26.6 233.59 26.5067 232.857 26.32 232.164C26.1067 231.444 25.8 230.804 25.4 230.244C24.9733 229.684 24.4533 229.244 23.84 228.924C23.2 228.604 22.4533 228.444 21.6 228.444H16.08ZM5.16 215.868C5.16 216.588 4.94666 217.174 4.52 217.628C4.06666 218.054 3.48 218.268 2.76 218.268C2.04 218.268 1.46666 218.054 1.04 217.628C0.586664 217.174 0.359998 216.588 0.359998 215.868C0.359998 215.148 0.586664 214.574 1.04 214.148C1.46666 213.694 2.04 213.468 2.76 213.468C3.48 213.468 4.06666 213.694 4.52 214.148C4.94666 214.574 5.16 215.148 5.16 215.868ZM9 214.268H31.04C32.6933 214.268 34 214.588 34.96 215.228C35.92 215.868 36.6 216.654 37 217.588C37.4 218.521 37.6 219.441 37.6 220.348C37.6 221.174 37.4667 221.934 37.2 222.628C36.96 223.321 36.6533 223.894 36.28 224.348L33.24 223.668C33.5867 223.294 33.88 222.828 34.12 222.268C34.36 221.708 34.48 221.081 34.48 220.388C34.48 219.534 34.2 218.841 33.64 218.308C33.08 217.748 32.1067 217.468 30.72 217.468H9V214.268ZM16.08 195.163C14.5867 195.163 13.44 195.563 12.64 196.363C11.8133 197.163 11.4 198.296 11.4 199.763C11.4 201.149 11.7067 202.323 12.32 203.283C12.9067 204.243 13.8667 204.949 15.2 205.403L13.6 208.003C12.1067 207.469 10.9067 206.483 10 205.043C9.06666 203.603 8.6 201.816 8.6 199.683C8.6 198.243 8.85333 196.936 9.36 195.763C9.84 194.589 10.5867 193.669 11.6 193.003C12.5867 192.309 13.8667 191.963 15.44 191.963H25.12C26.08 191.963 26.56 191.456 26.56 190.443C26.56 189.936 26.4933 189.443 26.36 188.963L28.88 189.123C29.1467 189.656 29.28 190.349 29.28 191.203C29.28 191.976 29.1333 192.669 28.84 193.283C28.5467 193.896 28.1067 194.376 27.52 194.723C26.9067 195.069 26.1467 195.243 25.24 195.243H24.84L24.96 194.443C26 194.763 26.8533 195.309 27.52 196.083C28.16 196.856 28.64 197.723 28.96 198.683C29.2533 199.643 29.4 200.589 29.4 201.523C29.4 202.696 29.2 203.789 28.8 204.803C28.4 205.816 27.8 206.629 27 207.243C26.1733 207.829 25.16 208.123 23.96 208.123C22.4667 208.123 21.24 207.629 20.28 206.643C19.2933 205.629 18.6267 204.229 18.28 202.443L16.72 194.523H19.36L20.68 200.963C20.9467 202.269 21.32 203.243 21.8 203.883C22.28 204.523 22.9467 204.843 23.8 204.843C24.6267 204.843 25.3067 204.523 25.84 203.883C26.3467 203.216 26.6 202.283 26.6 201.083C26.6 200.309 26.5067 199.576 26.32 198.883C26.1067 198.163 25.8 197.523 25.4 196.963C24.9733 196.403 24.4533 195.963 23.84 195.643C23.2 195.323 22.4533 195.163 21.6 195.163H16.08ZM2.2 173.146C2.2 170.48 2.74666 168.186 3.84 166.266C4.90666 164.32 6.45333 162.826 8.48 161.786C10.5067 160.746 12.9467 160.226 15.8 160.226C18.6533 160.226 21.0933 160.746 23.12 161.786C25.1467 162.826 26.7067 164.32 27.8 166.266C28.8667 168.186 29.4 170.48 29.4 173.146C29.4 175.813 28.8667 178.12 27.8 180.066C26.7067 182.013 25.1467 183.506 23.12 184.546C21.0933 185.586 18.6533 186.106 15.8 186.106C12.9467 186.106 10.5067 185.586 8.48 184.546C6.45333 183.506 4.90666 182.013 3.84 180.066C2.74666 178.12 2.2 175.813 2.2 173.146ZM7.6 173.146C7.6 174.426 7.90666 175.506 8.52 176.386C9.13333 177.266 10.0533 177.933 11.28 178.386C12.48 178.84 13.9867 179.066 15.8 179.066C17.5867 179.066 19.0933 178.84 20.32 178.386C21.5467 177.933 22.4667 177.266 23.08 176.386C23.6933 175.506 24 174.426 24 173.146C24 171.866 23.6933 170.8 23.08 169.946C22.4667 169.066 21.5467 168.4 20.32 167.946C19.0933 167.493 17.5867 167.266 15.8 167.266C13.9867 167.266 12.48 167.493 11.28 167.946C10.0533 168.4 9.13333 169.066 8.52 169.946C7.90666 170.8 7.6 171.866 7.6 173.146ZM2.6 144.294C2.6 140.161 3.74666 137.001 6.04 134.814C8.33333 132.601 11.5867 131.494 15.8 131.494C20.0133 131.494 23.2667 132.601 25.56 134.814C27.8533 137.001 29 140.161 29 144.294V155.494H2.6V144.294ZM23.8 144.974C23.8 142.734 23.1333 141.107 21.8 140.094C20.44 139.054 18.44 138.534 15.8 138.534C13.16 138.534 11.1733 139.054 9.84 140.094C8.48 141.107 7.8 142.734 7.8 144.974V148.614H23.8V144.974ZM29 126.783H2.6V106.223H7.92V119.903H13.28V109.023H18.28V119.903H23.68V105.703H29V126.783ZM2.6 88.9488C2.6 85.8021 3.34666 83.3621 4.84 81.6288C6.30666 79.8688 8.26666 78.9888 10.72 78.9888C13.4133 78.9888 15.4667 79.8554 16.88 81.5888C18.2933 83.3221 19 85.7621 19 88.9088L19.36 89.5488V94.7888H29V101.549H2.6L2.6 88.9488ZM14.48 89.9088C14.48 88.5754 14.2133 87.5754 13.68 86.9088C13.1467 86.2421 12.2933 85.9088 11.12 85.9088C9.97333 85.9088 9.13333 86.2421 8.6 86.9088C8.06666 87.5754 7.8 88.5754 7.8 89.9088V94.7888H14.48V89.9088ZM15.92 85.8688L29 77.4288V85.0288L17.44 91.7888L15.92 85.8688ZM23.68 67.0906V53.8506H29V73.9706H2.6V67.0906H23.68ZM29 25.9082V32.9882L23.04 34.8282L23.04 43.8682L29 45.7482V52.6682L2.6 43.3882V35.1482L29 25.9082ZM18.36 42.5882V36.1082L7.68 39.3482L18.36 42.5882ZM2.6 10.7178C2.6 8.55784 2.94666 6.71784 3.64 5.19784C4.33333 3.67784 5.33333 2.51784 6.64 1.71784C7.94666 0.917843 9.53333 0.517842 11.4 0.517842C13.2667 0.517842 14.8533 0.917843 16.16 1.71784C17.4667 2.51784 18.4667 3.67784 19.16 5.19784C19.8533 6.71784 20.2 8.55784 20.2 10.7178V15.9578H29V22.8378H2.6L2.6 10.7178ZM15.04 11.7978C15.04 10.3578 14.7467 9.27784 14.16 8.55784C13.5467 7.81118 12.6267 7.43784 11.4 7.43784C10.1733 7.43784 9.26666 7.81118 8.68 8.55784C8.06666 9.27784 7.76 10.3578 7.76 11.7978V15.9578H15.04V11.7978Z" fill="#121113"/>
</svg>
